<mxfile host="www.draw.io" modified="2019-12-21T14:14:27.992Z" agent="Mozilla/5.0 (Windows NT 10.0; Win64; x64) AppleWebKit/537.36 (KHTML, like Gecko) Chrome/79.0.3945.79 Safari/537.36" etag="L2xfiXgiSaFPXnG8-XOa" version="12.4.3" type="github" pages="1">
  <diagram id="n0p_Ru1AtYEMInTMPxUc" name="Page-1">
    <mxGraphModel dx="854" dy="436" grid="1" gridSize="10" guides="1" tooltips="1" connect="1" arrows="1" fold="1" page="1" pageScale="1" pageWidth="850" pageHeight="1100" math="0" shadow="0">
      <root>
        <mxCell id="0"/>
        <mxCell id="1" parent="0"/>
        <mxCell id="-9_4Ot5z5iVx5uQSP8wo-2" value="" style="rounded=1;whiteSpace=wrap;html=1;absoluteArcSize=1;arcSize=14;strokeWidth=2;" vertex="1" parent="1">
          <mxGeometry x="80" y="40" width="150" height="30" as="geometry"/>
        </mxCell>
        <mxCell id="-9_4Ot5z5iVx5uQSP8wo-4" value="Start" style="text;html=1;strokeColor=none;fillColor=none;align=center;verticalAlign=middle;whiteSpace=wrap;rounded=0;fontStyle=1;fontFamily=Verdana;fontSize=16;" vertex="1" parent="1">
          <mxGeometry x="100" y="44" width="110" height="20" as="geometry"/>
        </mxCell>
        <mxCell id="-9_4Ot5z5iVx5uQSP8wo-32" style="edgeStyle=orthogonalEdgeStyle;rounded=0;orthogonalLoop=1;jettySize=auto;html=1;exitX=1;exitY=0.5;exitDx=0;exitDy=0;exitPerimeter=0;entryX=0;entryY=0.25;entryDx=0;entryDy=0;fontFamily=Verdana;fontSize=11;dashed=1;" edge="1" parent="1" source="-9_4Ot5z5iVx5uQSP8wo-7" target="-9_4Ot5z5iVx5uQSP8wo-14">
          <mxGeometry relative="1" as="geometry"/>
        </mxCell>
        <mxCell id="-9_4Ot5z5iVx5uQSP8wo-7" value="" style="strokeWidth=2;html=1;shape=mxgraph.flowchart.decision;whiteSpace=wrap;fontFamily=Verdana;fontSize=16;" vertex="1" parent="1">
          <mxGeometry x="80" y="105" width="155" height="105" as="geometry"/>
        </mxCell>
        <mxCell id="-9_4Ot5z5iVx5uQSP8wo-8" value="Goto Store From CartRight" style="text;html=1;strokeColor=none;fillColor=none;align=center;verticalAlign=middle;whiteSpace=wrap;rounded=0;fontFamily=Verdana;fontSize=11;" vertex="1" parent="1">
          <mxGeometry x="107" y="126.5" width="100" height="50" as="geometry"/>
        </mxCell>
        <mxCell id="-9_4Ot5z5iVx5uQSP8wo-28" style="edgeStyle=orthogonalEdgeStyle;rounded=0;orthogonalLoop=1;jettySize=auto;html=1;exitX=1;exitY=0.5;exitDx=0;exitDy=0;exitPerimeter=0;entryX=0;entryY=0.5;entryDx=0;entryDy=0;fontFamily=Verdana;fontSize=13;dashed=1;" edge="1" parent="1" source="-9_4Ot5z5iVx5uQSP8wo-11" target="-9_4Ot5z5iVx5uQSP8wo-17">
          <mxGeometry relative="1" as="geometry"/>
        </mxCell>
        <mxCell id="-9_4Ot5z5iVx5uQSP8wo-11" value="" style="strokeWidth=2;html=1;shape=mxgraph.flowchart.decision;whiteSpace=wrap;fontFamily=Verdana;fontSize=16;" vertex="1" parent="1">
          <mxGeometry x="77.5" y="235.5" width="155" height="105" as="geometry"/>
        </mxCell>
        <mxCell id="-9_4Ot5z5iVx5uQSP8wo-12" value="Landed on Store Product Page" style="text;html=1;strokeColor=none;fillColor=none;align=center;verticalAlign=middle;whiteSpace=wrap;rounded=0;fontFamily=Verdana;fontSize=11;" vertex="1" parent="1">
          <mxGeometry x="105" y="260.5" width="100" height="50" as="geometry"/>
        </mxCell>
        <mxCell id="-9_4Ot5z5iVx5uQSP8wo-25" style="edgeStyle=orthogonalEdgeStyle;rounded=0;orthogonalLoop=1;jettySize=auto;html=1;exitX=0.75;exitY=1;exitDx=0;exitDy=0;entryX=0.813;entryY=-0.033;entryDx=0;entryDy=0;entryPerimeter=0;fontFamily=Verdana;fontSize=13;" edge="1" parent="1" source="-9_4Ot5z5iVx5uQSP8wo-14" target="-9_4Ot5z5iVx5uQSP8wo-17">
          <mxGeometry relative="1" as="geometry"/>
        </mxCell>
        <mxCell id="-9_4Ot5z5iVx5uQSP8wo-14" value="" style="html=1;whiteSpace=wrap;comic=1;strokeWidth=2;fontFamily=Comic Sans MS;fontStyle=1;" vertex="1" parent="1">
          <mxGeometry x="310" y="120" width="230" height="80" as="geometry"/>
        </mxCell>
        <mxCell id="-9_4Ot5z5iVx5uQSP8wo-16" value="&lt;ul style=&quot;font-size: 11px&quot;&gt;&lt;li&gt;&lt;span&gt;Unique User ID Creation&lt;/span&gt;&lt;/li&gt;&lt;li&gt;&lt;span&gt;Redirected to Store&lt;/span&gt;&lt;/li&gt;&lt;/ul&gt;" style="text;html=1;strokeColor=none;fillColor=none;align=left;verticalAlign=middle;whiteSpace=wrap;rounded=0;fontFamily=Verdana;fontSize=13;" vertex="1" parent="1">
          <mxGeometry x="320" y="126.5" width="210" height="56.5" as="geometry"/>
        </mxCell>
        <mxCell id="-9_4Ot5z5iVx5uQSP8wo-17" value="" style="html=1;whiteSpace=wrap;comic=1;strokeWidth=2;fontFamily=Comic Sans MS;fontStyle=1;" vertex="1" parent="1">
          <mxGeometry x="310" y="243" width="230" height="90" as="geometry"/>
        </mxCell>
        <mxCell id="-9_4Ot5z5iVx5uQSP8wo-18" value="&lt;ul style=&quot;font-size: 11px&quot;&gt;&lt;li&gt;&lt;span&gt;Cookie creation&lt;/span&gt;&lt;/li&gt;&lt;li&gt;&lt;span&gt;User session initialized&lt;/span&gt;&lt;/li&gt;&lt;li&gt;&lt;span&gt;Tracking&amp;nbsp;&lt;/span&gt;initialized&lt;/li&gt;&lt;/ul&gt;" style="text;html=1;strokeColor=none;fillColor=none;align=left;verticalAlign=middle;whiteSpace=wrap;rounded=0;fontFamily=Verdana;fontSize=13;" vertex="1" parent="1">
          <mxGeometry x="320" y="253" width="210" height="70" as="geometry"/>
        </mxCell>
        <mxCell id="-9_4Ot5z5iVx5uQSP8wo-24" style="edgeStyle=orthogonalEdgeStyle;rounded=0;orthogonalLoop=1;jettySize=auto;html=1;exitX=0.5;exitY=1;exitDx=0;exitDy=0;entryX=0.435;entryY=0;entryDx=0;entryDy=0;entryPerimeter=0;fontFamily=Verdana;fontSize=13;" edge="1" parent="1" source="-9_4Ot5z5iVx5uQSP8wo-20" target="-9_4Ot5z5iVx5uQSP8wo-14">
          <mxGeometry relative="1" as="geometry"/>
        </mxCell>
        <mxCell id="-9_4Ot5z5iVx5uQSP8wo-20" value="" style="verticalLabelPosition=bottom;verticalAlign=top;html=1;shape=offPageConnector;rounded=0;size=0.5;fontFamily=Verdana;fontSize=13;" vertex="1" parent="1">
          <mxGeometry x="330" y="40" width="160" height="46" as="geometry"/>
        </mxCell>
        <mxCell id="-9_4Ot5z5iVx5uQSP8wo-21" value="&lt;font style=&quot;font-size: 12px&quot;&gt;Tracker Events&lt;/font&gt;" style="text;html=1;strokeColor=none;fillColor=none;align=center;verticalAlign=middle;whiteSpace=wrap;rounded=0;fontStyle=1;fontFamily=Verdana;fontSize=13;" vertex="1" parent="1">
          <mxGeometry x="358" y="45" width="110" height="20" as="geometry"/>
        </mxCell>
        <mxCell id="-9_4Ot5z5iVx5uQSP8wo-33" value="" style="strokeWidth=2;html=1;shape=mxgraph.flowchart.decision;whiteSpace=wrap;fontFamily=Verdana;fontSize=16;" vertex="1" parent="1">
          <mxGeometry x="77.5" y="380" width="155" height="105" as="geometry"/>
        </mxCell>
        <mxCell id="-9_4Ot5z5iVx5uQSP8wo-34" value="Checkout Window" style="text;html=1;strokeColor=none;fillColor=none;align=center;verticalAlign=middle;whiteSpace=wrap;rounded=0;fontFamily=Verdana;fontSize=11;" vertex="1" parent="1">
          <mxGeometry x="105" y="405" width="100" height="50" as="geometry"/>
        </mxCell>
      </root>
    </mxGraphModel>
  </diagram>
</mxfile>
